<svg width="72" height="24" viewBox="0 0 72 24" fill="none" xmlns="http://www.w3.org/2000/svg">
<path d="M1.61754 18.9981V4.45265H3.81214V17.1089H10.4031V18.9981H1.61754ZM12.7362 18.9981V8.08902H14.8597V18.9981H12.7362ZM13.8086 6.40578C13.4393 6.40578 13.122 6.28267 12.8569 6.03646C12.5965 5.78551 12.4663 5.48722 12.4663 5.14157C12.4663 4.79119 12.5965 4.4929 12.8569 4.24669C13.122 3.99574 13.4393 3.87027 13.8086 3.87027C14.1779 3.87027 14.4928 3.99574 14.7532 4.24669C15.0183 4.4929 15.1509 4.79119 15.1509 5.14157C15.1509 5.48722 15.0183 5.78551 14.7532 6.03646C14.4928 6.28267 14.1779 6.40578 13.8086 6.40578ZM22.9084 8.08902V9.79356H16.7436V8.08902H22.9084ZM18.4339 18.9981V6.82481C18.4339 6.14299 18.5831 5.57718 18.8814 5.12737C19.1797 4.67282 19.575 4.33428 20.0675 4.11174C20.5599 3.88447 21.0949 3.77083 21.6726 3.77083C22.0987 3.77083 22.4633 3.80635 22.7663 3.87737C23.0694 3.94366 23.2943 4.00521 23.4411 4.06203L22.9439 5.78078C22.8445 5.75237 22.7166 5.71923 22.5604 5.68135C22.4041 5.63873 22.2147 5.61743 21.9922 5.61743C21.4761 5.61743 21.1068 5.74527 20.8842 6.00095C20.6664 6.25663 20.5575 6.62595 20.5575 7.1089V18.9981H18.4339ZM29.3714 19.2183C28.2966 19.2183 27.371 18.9886 26.5945 18.5294C25.8227 18.0653 25.2261 17.4143 24.8047 16.5762C24.388 15.7334 24.1797 14.7462 24.1797 13.6146C24.1797 12.4972 24.388 11.5123 24.8047 10.66C25.2261 9.80777 25.8132 9.14252 26.5661 8.6643C27.3236 8.18608 28.209 7.94697 29.2223 7.94697C29.8378 7.94697 30.4344 8.04877 31.0121 8.25237C31.5897 8.45597 32.1082 8.77557 32.5675 9.21118C33.0268 9.64678 33.389 10.2126 33.6541 10.9086C33.9193 11.5999 34.0518 12.4403 34.0518 13.4299V14.1828H25.38V12.5919H31.9709C31.9709 12.0331 31.8572 11.5384 31.63 11.1075C31.4027 10.6719 31.0831 10.3286 30.6712 10.0777C30.264 9.82671 29.7857 9.70123 29.2365 9.70123C28.6399 9.70123 28.1191 9.84801 27.674 10.1416C27.2337 10.4304 26.8928 10.8092 26.6513 11.2779C26.4145 11.742 26.2962 12.2462 26.2962 12.7907V14.0336C26.2962 14.7628 26.424 15.3831 26.6797 15.8944C26.9401 16.4058 27.3023 16.7964 27.7663 17.0663C28.2304 17.3314 28.7725 17.464 29.3928 17.464C29.7952 17.464 30.1622 17.4072 30.4936 17.2936C30.825 17.1752 31.1115 17 31.353 16.768C31.5945 16.536 31.7791 16.2495 31.907 15.9086L33.9169 16.2708C33.7559 16.8627 33.4671 17.3812 33.0504 17.8262C32.6385 18.2666 32.12 18.6099 31.495 18.8561C30.8748 19.0975 30.1669 19.2183 29.3714 19.2183Z" fill="white"/>
<path d="M53.5858 21.8932L53.5777 21.8897L53.552 21.8757C53.4018 21.7931 53.2529 21.7083 53.1052 21.6214C51.3293 20.5661 49.6697 19.3265 48.1538 17.923C45.4693 15.4182 42.625 11.7012 42.625 7.12319C42.625 3.70719 45.4997 0.998191 48.9693 0.998191C49.9339 0.993466 50.8871 1.20625 51.758 1.62073C52.629 2.03521 53.3953 2.6407 54 3.39219C54.6048 2.64055 55.3713 2.03496 56.2425 1.62048C57.1137 1.20599 58.0671 0.993291 59.0318 0.998191C62.5003 0.998191 65.375 3.70719 65.375 7.12319C65.375 11.7024 62.5307 15.4194 59.8462 17.9219C58.3304 19.3253 56.6707 20.565 54.8948 21.6202C54.7471 21.7075 54.5982 21.7927 54.448 21.8757L54.4223 21.8897L54.4142 21.8944L54.4107 21.8955C54.2842 21.9625 54.1432 21.9976 54 21.9976C53.8568 21.9976 53.7158 21.9625 53.5893 21.8955L53.5858 21.8932Z" fill="white"/>
<path d="M63.8933 20.0402L67.0833 14.0201H64.8833V10.1247L61.5833 16.1448H63.8933V20.0402ZM64.3333 22.1649C63.3189 22.1649 62.3656 21.979 61.4733 21.6072C60.5811 21.2353 59.805 20.7307 59.145 20.0933C58.485 19.4559 57.9625 18.7063 57.5775 17.8446C57.1925 16.9829 57 16.0622 57 15.0824C57 14.1027 57.1925 13.182 57.5775 12.3203C57.9625 11.4586 58.485 10.709 59.145 10.0716C59.805 9.4342 60.5811 8.92957 61.4733 8.55774C62.3656 8.18591 63.3189 8 64.3333 8C65.3478 8 66.3011 8.18591 67.1933 8.55774C68.0856 8.92957 68.8617 9.4342 69.5217 10.0716C70.1817 10.709 70.7042 11.4586 71.0892 12.3203C71.4742 13.182 71.6667 14.1027 71.6667 15.0824C71.6667 16.0622 71.4742 16.9829 71.0892 17.8446C70.7042 18.7063 70.1817 19.4559 69.5217 20.0933C68.8617 20.7307 68.0856 21.2353 67.1933 21.6072C66.3011 21.979 65.3478 22.1649 64.3333 22.1649Z" fill="#894189"/>
<path d="M64.2667 19.5894L67.1667 14.1166H65.1667V10.5754L62.1667 16.0482H64.2667V19.5894ZM64.6667 21.521C63.7444 21.521 62.8778 21.352 62.0667 21.014C61.2556 20.6759 60.55 20.2172 59.95 19.6377C59.35 19.0582 58.875 18.3768 58.525 17.5935C58.175 16.8101 58 15.9731 58 15.0824C58 14.1917 58.175 13.3547 58.525 12.5714C58.875 11.788 59.35 11.1066 59.95 10.5271C60.55 9.94764 61.2556 9.48889 62.0667 9.15087C62.8778 8.81284 63.7444 8.64383 64.6667 8.64383C65.5889 8.64383 66.4556 8.81284 67.2667 9.15087C68.0778 9.48889 68.7833 9.94764 69.3833 10.5271C69.9833 11.1066 70.4583 11.788 70.8083 12.5714C71.1583 13.3547 71.3333 14.1917 71.3333 15.0824C71.3333 15.9731 71.1583 16.8101 70.8083 17.5935C70.4583 18.3768 69.9833 19.0582 69.3833 19.6377C68.7833 20.2172 68.0778 20.6759 67.2667 21.014C66.4556 21.352 65.5889 21.521 64.6667 21.521Z" fill="white"/>
</svg>
